<svg width="52" height="57" viewBox="0 0 52 57" fill="none" xmlns="http://www.w3.org/2000/svg">
<path d="M31.1069 0.0312144C32.6341 0.0327497 34.1052 0.503914 35.2659 1.35263L35.6861 1.68842L49.972 14.1559C51.0511 15.0976 51.7091 16.3367 51.8409 17.6514L51.8655 18.1475L51.8327 50.8328C51.8297 53.8074 49.1845 56.2416 45.8321 56.4536L45.3486 56.4686L6.47836 56.4295C3.06308 56.4261 0.267372 54.1216 0.0229977 51.2018L0.00565239 50.7807L0.0510295 5.6423C0.0540198 2.66779 2.69925 0.233525 6.05157 0.0215028L6.53508 0.00651264L31.1069 0.0312144ZM25.9645 5.66835L6.52941 5.64881L6.48403 50.7872L45.3543 50.8263L45.3826 22.6148L30.8063 22.6001C28.123 22.5974 25.9494 20.7006 25.9518 18.3635L25.9645 5.66835ZM32.4417 6.84341L32.4316 16.9595L44.0466 16.9711L32.4417 6.84341Z" fill="#F7F3E3"/>
</svg>
